<?xml version="1.0" encoding="utf-8"?>
<svg viewBox="0 0 512 512" width="512" height="512" xmlns="http://www.w3.org/2000/svg">
  <defs>
    <filter id="drop-shadow-filter-0" x="-500%" y="-500%" width="1000%" height="1000%">
      <feGaussianBlur in="SourceAlpha" stdDeviation="0"/>
      <feOffset dx="-10" dy="-10"/>
      <feComponentTransfer result="offsetblur">
        <feFuncA id="spread-ctrl" type="linear" slope="1"/>
      </feComponentTransfer>
      <feFlood flood-color="rgba(151,151,151,1)"/>
      <feComposite in2="offsetblur" operator="in"/>
      <feMerge>
        <feMergeNode/>
        <feMergeNode in="SourceGraphic"/>
      </feMerge>
    </filter>
  </defs>
  <path d="M 182.856 284.266 L 239.568 373.897 C 246.566 384.929 253.356 393.203 259.906 398.719 C 266.561 404.236 274.263 406.993 283.005 406.993 L 284.208 406.993 L 284.208 424.404 L 278.348 424.404 C 265.472 424.404 254.909 423.955 246.633 423.025 C 238.24 422.11 231.169 420.265 225.434 417.506 C 219.674 414.871 214.743 411.13 210.606 406.304 C 206.472 401.374 202.042 394.994 197.335 387.172 L 141.488 294.092 L 107.014 294.092 L 107.014 379.413 C 107.014 385.396 107.929 390.273 109.771 394.064 C 111.601 397.753 114.081 400.512 117.184 402.34 C 120.287 404.303 123.904 405.564 128.042 406.129 C 132.059 406.717 136.37 406.993 140.972 406.993 L 146.487 406.993 L 146.487 424.404 L 26 424.404 L 26 406.993 L 31.344 406.993 C 35.931 406.993 40.238 406.717 44.27 406.129 C 48.409 405.564 52.028 404.303 55.132 402.34 C 58.233 400.512 60.7 397.753 62.542 394.064 C 64.371 390.273 65.302 385.396 65.302 379.413 L 65.302 174.466 C 65.302 168.503 64.371 163.605 62.542 159.816 C 60.7 156.144 58.233 153.337 55.132 151.369 C 52.028 149.302 48.409 147.991 44.27 147.404 C 40.238 146.718 35.931 146.369 31.344 146.369 L 26 146.369 L 26 129.131 L 137.351 129.131 C 173.205 129.131 199.853 135.755 217.328 148.956 C 234.912 162.297 243.704 182.293 243.704 208.941 C 243.704 219.972 241.858 229.626 238.189 237.9 C 234.619 246.174 229.964 253.362 224.224 259.445 C 218.469 265.425 211.919 270.425 204.576 274.442 C 197.335 278.576 190.096 281.852 182.856 284.266 Z M 107.014 148.956 L 107.014 274.787 L 136.142 274.787 C 148.313 274.787 158.432 273.406 166.482 270.649 C 174.515 268.011 180.961 263.994 185.787 258.581 C 190.717 253.188 194.232 246.465 196.302 238.418 C 198.367 230.263 199.405 220.836 199.405 210.148 C 199.405 199.116 198.25 189.704 195.957 181.878 C 193.648 174.193 189.975 167.864 184.926 162.915 C 179.756 157.988 173.086 154.422 164.93 152.233 C 156.761 150.06 146.829 148.956 135.108 148.956 Z M 486 116.205 L 409.47 116.205 L 409.47 192.914 L 384.649 192.914 L 384.649 116.205 L 308.463 116.205 L 308.463 91.9 L 384.649 91.9 L 384.649 15.543 L 409.47 15.543 L 409.47 91.9 L 486 91.9 Z M 484.452 387.514 C 484.452 405.564 482.898 421.989 479.795 436.813 C 476.574 451.634 471.814 464.342 465.493 474.907 C 459.061 485.37 451.011 493.47 441.358 499.207 C 431.826 505.071 420.621 508 407.745 508 C 394.302 508 382.701 505.071 372.928 499.207 C 363.277 493.47 355.347 485.37 349.14 474.907 C 342.816 464.342 338.16 451.583 335.178 436.64 C 332.2 421.816 330.699 405.321 330.699 387.172 C 330.699 369.017 332.2 352.577 335.178 337.874 C 338.16 323.169 342.816 310.586 349.14 300.126 C 355.347 289.782 363.327 281.732 373.099 275.991 C 382.873 270.355 394.474 267.545 407.921 267.545 C 420.798 267.545 432 270.355 441.531 275.991 C 451.064 281.732 459.061 289.782 465.493 300.126 C 471.814 310.586 476.574 323.223 479.795 338.045 C 482.898 352.748 484.452 369.242 484.452 387.514 Z M 364.826 387.514 C 364.826 403.719 365.568 418.198 367.068 430.955 C 368.567 443.708 370.981 454.444 374.308 463.184 C 377.633 472.028 382.064 478.751 387.578 483.35 C 393.094 488.056 399.82 490.419 407.745 490.419 C 415.675 490.419 422.345 488.056 427.742 483.35 C 433.259 478.751 437.686 472.028 441.015 463.184 C 444.34 454.444 446.754 443.708 448.253 430.955 C 449.632 418.198 450.323 403.719 450.323 387.514 C 450.323 371.312 449.632 356.887 448.253 344.251 C 446.754 331.495 444.34 320.757 441.015 312.017 C 437.686 303.278 433.308 296.678 427.916 292.196 C 422.519 287.591 415.846 285.301 407.921 285.301 C 399.99 285.301 393.269 287.591 387.753 292.196 C 382.236 296.678 377.806 303.278 374.481 312.017 C 371.032 320.757 368.567 331.495 367.068 344.251 C 365.568 356.887 364.826 371.312 364.826 387.514 Z" style="white-space: pre; fill: rgb(255, 255, 255); filter: url(#drop-shadow-filter-0);"/>
</svg>